/* XPM */
static char *result[] = {
/* columns rows colors chars-per-pixel */
"50 50 160 2 ",
"   c #010101",
".  c #0B0404",
"X  c #0C0906",
"o  c #0C0308",
"O  c #0C0B0B",
"+  c #120904",
"@  c #1C0C04",
"#  c #141209",
"$  c #131313",
"%  c #191516",
"&  c #1C1B1B",
"*  c #1D1718",
"=  c #2F1A0D",
"-  c #251E1D",
";  c #1F321E",
":  c #22201D",
">  c #21311B",
",  c #2B2B2B",
"<  c #282121",
"1  c #332D2C",
"2  c #362D26",
"3  c #263424",
"4  c #2E3B2D",
"5  c #32302A",
"6  c #332F30",
"7  c #343333",
"8  c #3B3435",
"9  c #3D3D3D",
"0  c #5A320F",
"q  c #4F2E11",
"w  c #502F12",
"e  c #573313",
"r  c #5A3113",
"t  c #613511",
"y  c #62380D",
"u  c #523826",
"i  c #533929",
"p  c #443E3D",
"a  c #4E3F3F",
"s  c #4F3928",
"d  c #294725",
"f  c #2A4926",
"g  c #2B4928",
"h  c #264A24",
"j  c #2F562A",
"k  c #33582E",
"l  c #3A6736",
"z  c #3C6638",
"x  c #51561E",
"c  c #625E1A",
"v  c #60601B",
"b  c #535921",
"n  c #4E4230",
"m  c #45403F",
"M  c #524734",
"N  c #7B4F2E",
"B  c #7B502F",
"V  c #40693A",
"C  c #45763F",
"Z  c #65752F",
"A  c #657630",
"S  c #464242",
"D  c #494949",
"F  c #4E4546",
"G  c #524545",
"H  c #524847",
"J  c #544848",
"K  c #5C4E4E",
"L  c #534749",
"P  c #5F504F",
"I  c #5D4F51",
"U  c #535353",
"Y  c #5F5150",
"T  c #5A5A5A",
"R  c #655353",
"E  c #6A5A57",
"W  c #755D5D",
"Q  c #4F6949",
"!  c #51694E",
"~  c #467641",
"^  c #487542",
"/  c #487942",
"(  c #477841",
")  c #5A7256",
"_  c #7B6B51",
"`  c #7E674B",
"'  c #636363",
"]  c #A16405",
"[  c #AB6D0A",
"{  c #B77504",
"}  c #BF7A02",
"|  c #B2730A",
" . c #8F592E",
".. c #8B562E",
"X. c #8D5732",
"o. c #8A5A33",
"O. c #865D34",
"+. c #945F39",
"@. c #93623B",
"#. c #C07B02",
"$. c #A47A5A",
"%. c #AA7B57",
"&. c #8B7E68",
"*. c #B07F64",
"=. c #54824D",
"-. c #578252",
";. c #67925E",
":. c #669262",
">. c #699360",
",. c #719667",
"<. c #759C6D",
"1. c #7A9E6E",
"2. c #71956B",
"3. c #799F71",
"4. c #78A06D",
"5. c #75A26C",
"6. c #79A071",
"7. c #D2850F",
"8. c #D58510",
"9. c #E29003",
"0. c #F29A03",
"q. c #8C8557",
"w. c #B2815C",
"e. c #878161",
"r. c #849F6F",
"t. c #A68969",
"y. c #B39269",
"u. c #B69267",
"i. c #AD9A79",
"p. c #83A06D",
"a. c #82A370",
"s. c #BBA16D",
"d. c #BCAA76",
"f. c #C1AB79",
"g. c #ECAB7A",
"h. c #EDB27E",
"j. c #F5B37F",
"k. c #F8B37D",
"l. c #8E8E8E",
"z. c gray51",
"x. c #929292",
"c. c #A39E9E",
"v. c #AEAEAE",
"b. c #A7A8A7",
"n. c #B0B0B0",
"m. c #ECB182",
"M. c #F4B381",
"N. c #F3BE8B",
"B. c #F9B280",
"V. c #E9AE84",
"C. c #CDC592",
"Z. c #DFC598",
"A. c #ECCA95",
"S. c #EECD9A",
"D. c #F0CF9E",
"F. c #F5D39F",
"G. c #F5D5A1",
"H. c #EBEBEB",
"J. c #E4E4E4",
"K. c #3FB001",
/* pixels */
"K.K.K.K.K.K.K.K.K.K.K.K.K.K.K.n.                                    v.K.K.K.K.K.K.K.K.K.K.K.K.K.K.K.",
"K.K.K.K.K.K.K.K.K.K.K.K.K.K.K.n.                                    n.K.K.K.K.K.K.K.K.K.K.K.K.K.K.K.",
"K.K.K.K.K.K.K.K.K.K.K.K.K.K.K.n.                                    v.K.K.K.K.K.K.K.K.K.K.K.K.K.K.K.",
"K.K.K.K.K.K.K.K.K.K.K.K.T & & 1 E R R R R R R R E R R R R R R R E R 1 & & T K.K.K.K.K.K.K.K.K.K.K.K.",
"K.K.K.K.K.K.K.K.K.K.K.K.D     - W W W W W W W W W W W W W W W W W W -     D K.K.K.K.K.K.K.K.K.K.K.K.",
"K.K.K.K.K.K.K.K.K.K.K.K.D     - W W W W W W W W W W W W W _ W W W W -     D K.K.K.K.K.K.K.K.K.K.K.K.",
"K.K.K.K.K.K.K.K.K.x.U U 9 6 8 a W W W W W W P R Y Y R I < < < U P P G a a L U U x.K.K.K.K.K.K.K.K.K.",
"K.K.K.K.K.K.K.K.K.T     8 J H K W W W W W W G L J H L L       F J J E W W L     T K.K.K.K.K.K.K.K.K.",
"K.K.K.K.K.K.K.K.K.T     8 J J I W W W W W W L L H H J J .     H H H E W W L     T K.K.K.K.K.K.K.K.K.",
"K.K.K.K.K.K.K.K.K.T     8 J J K Y Y R Y Y I S S S : & &       S S S K Y P p     T K.K.K.K.K.K.K.K.K.",
"K.K.K.K.K.K.K.K.K.T     8 J J H L H J J L J 9 9 9 O           9 9 9 F J J 8     T K.K.K.K.K.K.K.K.K.",
"K.K.K.K.K.K.K.K.K.T     8 J J H J J J J J L 9 9 8             9 9 9 F J J 8     T K.K.K.K.K.K.K.K.K.",
"K.K.K.K.K.K.K.K.K.T     1 S S 8 * % * S S p $ $ $       %.w.w.% $ $ 1 S S 5     T K.K.K.K.K.K.K.K.K.",
"K.K.K.K.K.K.K.K.K.T     , 9 9 ,       9 p 9           . g.j.k..     , 9 9 ,     T K.K.K.K.K.K.K.K.K.",
"K.K.K.K.K.K.K.K.K.T     , 9 9 ,     . 9 g S           . g.M.k.X     , 9 9 ,     T K.K.K.K.K.K.K.K.K.",
"K.K.K.K.K.K.K.K.K.l.U U 7 , , 5 u s s , , , u u u u u u $.$.$.i u u 2 , , 7 U U l.K.K.K.K.K.K.K.K.K.",
"K.K.K.K.K.K.K.K.K.K.K.K.D     i j.k.m.    O j.B.B.M.M.M.O     h.B.M.u     D K.K.K.K.K.K.K.K.K.K.K.K.",
"K.K.K.K.K.K.K.K.K.K.K.K.D     u j.j.m.    O h.B.j.j.M.M.X     h.M.M.u     D K.K.K.K.K.K.K.K.K.K.K.K.",
"K.K.K.K.K.K.K.K.K.K.K.K.D     s M.M.V.    O m.M.M.M.M.V.O     m.M.M.i     D K.K.K.K.K.K.K.K.K.K.K.K.",
"K.K.K.K.K.K.K.K.K.K.K.K.D     n G.G.D.    O G.G.G.G.G.G.O     S.G.G.n     D K.K.K.K.K.K.K.K.K.K.K.K.",
"K.K.K.K.K.K.K.K.K.K.K.K.D     n G.G.D.    O F.F.F.G.G.G.O     S.G.G.n     D K.K.K.K.K.K.K.K.K.K.K.K.",
"K.K.K.K.K.K.K.K.K.K.K.K.U O O M A.S.Z.O O % G.G.G.G.G.F.% O O Z.A.A.M $ $ U K.K.K.K.K.K.K.K.K.K.K.K.",
"K.K.K.K.K.K.K.K.K.K.K.K.K.K.K.v.  . X j.j.M.G.G.F.G.G.F.j.j.j.X .   v.K.K.K.K.K.K.K.K.K.K.K.K.K.K.K.",
"K.K.K.K.K.K.K.K.K.K.K.K.K.K.K.n.    . k.M.B.G.G.G.F.G.F.k.j.j..     n.K.K.K.K.K.K.K.K.K.K.K.K.K.K.K.",
"K.K.K.K.K.K.K.K.K.K.K.K.K.H.H.b.O O # h.h.m.S.S.S.S.S.A.h.h.h.# O O b.H.H.K.K.K.K.K.K.K.K.K.K.K.K.K.",
"K.K.K.K.K.K.K.K.K.K.K.K.T % % 4 ,.,.,.r.a.a.@.+.@.@.@.@.p.a.a.,.,.,.4 $ $ T K.K.K.K.K.K.K.K.K.K.K.K.",
"K.K.K.K.K.K.K.K.K.K.K.K.D     3 4.6.4.6.3.4.o.X. .X.X.o.1.6.6.6.4.6.3     D K.K.K.K.K.K.K.K.K.K.K.K.",
"K.K.K.K.K.K.K.K.K.K.K.K.D     3 4.4.4.4.4.1.o.o.o.o.o.O.1.4.4.4.4.6.3   X D K.K.K.K.K.K.K.K.K.K.K.K.",
"K.K.K.K.K.K.K.K.K.' O O ) <.1.;.( / / / / / 1.3.3.1.1.1./ / / / / / ;.<.<.) O O ' K.K.K.K.K.K.K.K.K.",
"K.K.K.K.K.K.K.K.K.T     ) 3.6.>.C C C C C C 4.6.3.6.6.4./ C C C ~ C :.6.3.)     T K.K.K.K.K.K.K.K.K.",
"K.K.K.K.K.K.K.K.K.T     ) 3.6.>.C C C C C ( 6.3.6.3.6.1.~ ~ C C C C :.6.3.)     T K.K.K.K.K.K.K.K.K.",
"K.K.K.K.K.K.U O O Q <.<.-.^ / z f f f ( ~ ^ 4.3.3./ ~ ~ g d f f d g V C ^ =.<.<.! O O T K.K.K.K.K.K.",
"K.K.K.K.K.K.U     ! 6.6.=.~ C l d d h C C C 4.6.1./ C C g d d h d d z ~ C =.6.6.!     U K.K.K.K.K.K.",
"K.K.K.K.K.K.U     Q 6.6.-.~ ~ l d d h C C C 4.4.1./ C C g h d d d d z ~ C =.6.3.Q     U K.K.K.K.K.K.",
"K.K.K.K.K.K.U     e.C.C.d.s.s.q.d d d j j k =.=.=.k j j d d d d d f &.u.s.f.C.C.e.    U K.K.K.K.K.K.",
"K.K.K.K.K.K.U     t.G.G.N.j.j.y.d d d d d f C C C f d h d d d d d h u.k.B.N.G.G.t.    U K.K.K.K.K.K.",
"K.K.K.K.K.K.U     t.G.G.A.k.k.u.g g d d d f C C V f d d f d d h f f y.B.M.N.G.G.t.    U K.K.K.K.K.K.",
"K.K.K.K.K.K.z.D D &.i.i.t.%.t.@.> > > c c c A A Z b x x c c c > ; ; _ w.t.t.i.i.&.D D z.K.K.K.K.K.K.",
"K.K.K.K.K.K.K.K.K.T                 o 0.0.0.#.#.#.} } #.0.0.0.o                 T K.K.K.K.K.K.K.K.K.",
"K.K.K.K.K.K.K.K.K.T                 o 0.0.0.#.} #.} #.#.0.0.0.o                 T K.K.K.K.K.K.K.K.K.",
"K.K.K.K.K.K.K.K.K.x.T T T T T m     o 0.0.0.#.} } } #.#.0.0.0.o   o g T T T T T x.K.K.K.K.K.K.K.K.K.",
"K.K.K.K.K.K.K.K.K.K.K.K.K.K.K.n.    o 0.0.0.#.#.} #.} #.0.0.0.o   o n.K.K.K.K.K.K.K.K.K.K.K.K.K.K.K.",
"K.K.K.K.K.K.K.K.K.K.K.K.K.K.K.n.    o 0.0.0.} } } } #.#.0.0.0.o     n.K.K.K.K.K.K.K.K.K.K.K.K.K.K.K.",
"K.K.K.K.K.K.K.K.K.K.K.K.K.K.K.n.    o 9.9.9.} } } ] ] ] 7.7.8..     n.K.K.K.K.K.K.K.K.K.K.K.K.K.K.K.",
"K.K.K.K.K.K.K.K.K.K.K.K.K.K.K.n.    o } } } } } { y 0 0 .. . .      v.K.K.K.K.K.K.K.K.K.K.K.K.K.K.K.",
"K.K.K.K.K.K.K.K.K.K.K.K.K.K.K.n.    . } } } } } { t r r ..X.X..     n.K.K.K.K.K.K.K.K.K.K.K.K.K.K.K.",
"K.K.K.K.K.K.K.K.K.K.K.K.H.J.J.c.+ + @ | | | | | [ e q q N B N : & : n.K.K.K.K.K.K.K.K.K.K.K.K.K.K.K.",
"K.K.K.K.K.K.K.K.K.K.K.K.D     = o...o.e e e e e q .           K.K.K.K.K.K.K.K.K.K.K.K.K.K.K.K.K.K.K.",
"K.K.K.K.K.K.K.K.K.K.K.K.D     = X.X.X.r r r r r w .           K.K.K.K.K.K.K.K.K.K.K.K.K.K.K.K.K.K.K.",
"K.K.K.K.K.K.K.K.K.K.K.K.D     = X.X.X.0 r r r e w             K.K.K.K.K.K.K.K.K.K.K.K.K.K.K.K.K.K.K."
};
