/* XPM */
static char *result[] = {
/* columns rows colors chars-per-pixel */
"50 50 219 2 ",
"   c #020202",
".  c #0C0303",
"X  c #060904",
"o  c #080B07",
"O  c #0C0C0C",
"+  c #060609",
"@  c #120405",
"#  c #1D0A06",
"$  c #1E0A09",
"%  c #160707",
"&  c #0B1408",
"*  c #141314",
"=  c #1C1C1C",
"-  c #10150B",
";  c #230C0A",
":  c #2C090B",
">  c #3C0B0D",
",  c #301114",
"<  c #192111",
"1  c #0F230F",
"2  c #293B12",
"3  c #2F2F16",
"4  c #252525",
"5  c #2C2C2C",
"6  c #292728",
"7  c #373737",
"8  c #440D0F",
"9  c #4A0A0D",
"0  c #58130E",
"q  c #460D11",
"w  c #5A0E13",
"e  c #5C1412",
"r  c #551413",
"t  c #500B0F",
"y  c #631012",
"u  c #681418",
"i  c #771718",
"p  c #650F10",
"a  c #582910",
"s  c #7D251B",
"d  c #7D1420",
"f  c #403538",
"g  c #6D3933",
"h  c #384F1A",
"j  c #374A19",
"k  c #37511B",
"l  c #30572C",
"z  c #146F39",
"x  c #2E7338",
"c  c #45581B",
"v  c #4B621D",
"b  c #57731C",
"n  c #465A25",
"m  c #5D4E35",
"M  c #705438",
"N  c #4C6224",
"B  c #536C23",
"V  c #597427",
"C  c #546633",
"Z  c #607B21",
"A  c #3E3C41",
"S  c #207E45",
"D  c #444444",
"F  c #4A4A4B",
"G  c #5A5A5A",
"H  c #515151",
"J  c #415147",
"K  c #735456",
"L  c #576342",
"P  c #6E7154",
"I  c #6C6C6C",
"U  c gray38",
"Y  c #7D7D7D",
"T  c gray45",
"R  c #851717",
"E  c #991C1C",
"W  c #A81C1F",
"Q  c #B21D1F",
"!  c #872219",
"~  c #9E251B",
"^  c #8C3A11",
"/  c #A7251E",
"(  c #981C21",
")  c #A81C22",
"_  c #B21E22",
"`  c #BC1E24",
"'  c #B71F2A",
"]  c #A62122",
"[  c #B82425",
"{  c #BB372A",
"}  c #862E30",
"|  c #CD1F1C",
" . c #DB2C1F",
".. c #D4261C",
"X. c #C42D1A",
"o. c #E7361E",
"O. c #E22F17",
"+. c #C41E23",
"@. c #CB1E24",
"#. c #C81D2B",
"$. c #CB1E31",
"%. c #C32125",
"&. c #CB2224",
"*. c #CD2C2B",
"=. c #C82527",
"-. c #D22423",
";. c #D62A24",
":. c #DC2C22",
">. c #DC2E29",
",. c #D32528",
"<. c #DE3122",
"1. c #DC3828",
"2. c #D4332C",
"3. c #E12F24",
"4. c #E33425",
"5. c #ED3B22",
"6. c #E43429",
"7. c #EA3926",
"8. c #F13C23",
"9. c #E43D34",
"0. c #964219",
"q. c #AB4719",
"w. c #945529",
"e. c #A84727",
"r. c #976D33",
"t. c #C84515",
"y. c #EB471C",
"u. c #EE5D1F",
"i. c #EE571D",
"p. c #F05A1D",
"a. c #EF611D",
"s. c #D85A2E",
"d. c #D94B21",
"f. c #ED4125",
"g. c #EC4C2C",
"h. c #EA4828",
"j. c #F14424",
"k. c #F24B23",
"l. c #F3452D",
"z. c #EC5825",
"x. c #F35224",
"c. c #F25C23",
"v. c #F2582D",
"b. c #E64835",
"n. c #F34935",
"m. c #EA5534",
"M. c #F35635",
"N. c #EF6421",
"B. c #EC6929",
"V. c #F16424",
"C. c #F1642B",
"Z. c #F36C2A",
"A. c #F46824",
"S. c #EB6735",
"D. c #F36A37",
"F. c #EC763C",
"G. c #F47238",
"H. c #EE702D",
"J. c #D04D46",
"K. c #E64041",
"L. c #D17B5D",
"P. c #F56C46",
"I. c #E97844",
"U. c #F57D45",
"Y. c #F57947",
"T. c #F57A58",
"R. c #EF6B52",
"E. c #6D8E2A",
"W. c #6A8D27",
"Q. c #719132",
"!. c #7FA833",
"~. c #4C902E",
"^. c #1FA04E",
"/. c #3B8A62",
"(. c #749550",
"). c #57976F",
"_. c #7B8C6F",
"`. c #809D3D",
"'. c #81A72F",
"]. c #99CA37",
"[. c #93CA3C",
"{. c #EE824C",
"}. c #F6874A",
"|. c #ED8854",
" X c #F58553",
".X c #F48D55",
"XX c #F88859",
"oX c #F4935D",
"OX c #ED9563",
"+X c #F69567",
"@X c #F79A78",
"#X c #EC816F",
"$X c #F6A474",
"%X c #95C041",
"&X c #A6CE49",
"*X c #838383",
"=X c #8C8C8C",
"-X c #939393",
";X c #9B9B9B",
":X c #A2A2A2",
">X c #ACACAC",
",X c #B7B7B7",
"<X c #FBAE87",
"1X c #F4B598",
"2X c #FAB085",
"3X c #F8C6A9",
"4X c #F8CEB5",
"5X c #F9D2BA",
"6X c #C4C4C4",
"7X c #CBCBCB",
"8X c #D2D2D2",
"9X c #DDDDDD",
"0X c #FBEEDF",
"qX c #E4E4E4",
"wX c #ECECEC",
"eX c #3FB001",
"rX c #F2F2F2",
"tX c #F7EEE2",
"yX c #3FB001",
/* pixels */
"yXyXyXyXyXyXyXyXyXyXyXyXyXyXyXyXyXyXyXyXyXyXyXyXyXyXyXyXyXyXyXyXyXyXyXyXyXyXyXyXyXyXyXyXyXyXyXyXyXyX",
"yXyXyXyXyXyXyXyXyXyXyXyXyXyXyXyXyXyXyXyXyXyXyXyXyXyXyXyXyXyXyXyXyXyXyXyXyXyXyXyXyXyXyXyXyXyXyXyXqXyX",
"yXyXyXyXyXyXyXyXyXyXyXyXyXyXyXyXyXyXyXyXyXyXyXyXyXyXyXyXyXyXyXyXyXyXyXyXyXyXyXyXyXyXyXyXyXyXyXyX,XyX",
"yXyXyXyXyXyXyXyXyXyXyXyXyXyXyXyXyXyXyXyXyXyXyXyXyXyXyXyXyXyXyXyXyXyXyXyXyXyXyXyXyXyXyXyXyXyXyXyXwXqX",
"yXyXyXyXyXyXyXyXyXyXyXyXyXyXyXyXyXyXyXyXyXyXyXyXyXyXyXyXyXyXyXyXyXyXyXyXyXyXyXyXyXyXyXyXyXyXyXyXyXyX",
"yXyXyXyXyXyXyXyXyXyXyXyXyXyXyXyXyXyXyXyXyXyXyXyXyXyXyXyXyXyXyXyXyXyXyXyXyXyXyXyXyXyXyXyXyXyXyXyX8XyX",
"yXyXyXyXyXyXyXyXyXyXyXyXyXyXyXyXyXyXyXyXyXyXyXyXyXyXyXyXyXyXyXyXyXyXyXyXyXyXyXyXyXyXyXyXyXyXyXyX;X9X",
"yXyXyXyXyXyXyXyXyXyXyXyXyXyXyXyXyXyXrXwXyXyXyXyXyXyXyXyXyXyXyXyXyXyXyXyXyXyXyXyXyXyXyXyXyXyXyXyXyXyX",
"yXyXyXyXyXyXyXyXyXyXqX;X              F 7X7XqXyXyXyXyXyXyXyXyXyXyXyXyXyXyXyXyXyXyXyXyXyXyXyXyXyXqXwX",
"yXyXyXyXyXyXyXyXyXyX;X            X       * -XyXyXyXyXyXyXyXyXyXyXyXyXyXyXyXyXyXyXyXyXyXyXyXyXyX8X6X",
"yXyXyXyXyXyXyXyXyXyX;X  + 2 ~.z x v         6 -XyXyXyXyXyXyXyXyXyXyXyXyXyXyXyXyXyXyXyXyXyXyXyXyX6X7X",
"yXyXyXyXyXyXyXyXyXyX;X  X h W.    h ].].Z   .   O =XyXyXyXyXyXyXyXyXyXyXyXyXyXyXyXyXyXyXyXyXyXyX:XqX",
"yXyXyXyXyXyXyXyXyXyX;X  X h W.    2 '.'.Z 2 < X O I 9XyXyXyXyXyXyXyXyXyXyXyXyXyXyXyXyXyXyXyXyXyX8X9X",
"yXyXyXyXyXyXyXyXyXyX:X  o k E..         < B b 2 o   D *X7XyXyXyXyXyXyXyXyXyXyXyXyXyXyXyXyXyXyXyXqXqX",
"yXyXyXyXyXyXyXyXyXyX:X= o k E.        +   & b V +       -XyXyXyXyXyXyXyXyXyXyXyXyXyXyXyXyXyXyXyXyXyX",
"yXyXyXyXyXyXyXyXyXyX;XO 4 k E.    G eX;Xo     n %XN       -XyXyXyXyXyXyXyXyXyXyXyXyXyXyXyXyXyXyXyXyX",
"yXyXyXyXyXyXyXyXyXyX;X  O n E.    G rXeX-X+   o - V n     -XyXyXyXyXyXyXyXyXyXyXyXyXyXyXyXyXyXyXyXyX",
"yXyXyXyXyXyXyXyXyXyX;X  o k Q.*   G eXeX8X=XF   X V N     A T 7XyXyXyXyXyXyXyXyXyXyXyXyXyXyXyXyXyXyX",
"yXyXyXyXyXyXyXyXyXyX;X  o k E.* * G eXeXeXrXY     < V !.j     :XyXyXyXyXyXyXyXyXyXyXyXyXyXyXyXyXyXyX",
"yXyXyXyXyXyXyXyXyXyX;X  X k E.  O I eXeXeXrX*XO     B &Xc + < >XyXyXyXyXyXyXyXyXyXyXyXyXyXyXyXyXyXyX",
"yXyXyXyXyXyXyXyXwX:XI     h E.    G eXeXeXeXeX-XO + V ].N = O T qXyXyXyXyXyXyXyXyXyXyXyXyXyXyXyXyXyX",
"yXyXyXyXyXyXyXyX8X        j W.    G eXeXeXeXeX=X+   V &XC O   + ;XyXyXyXyXyXyXyXyXyXyXyXyXyXyXyXyXyX",
"yXyXyXyX-X5 4 6 =     & z (.E.    O 6 6 6 7 ;X=XO   % < B j     ;XyXyXyXyXyXyXyXyXyXyXyXyXyXyXyXyXyX",
"yXyXyX7 =           * J ).).).6 5     o O * 5 =X9XT O O V n O * :XyXyXyXyXyXyXyXyXyXyXyXyXyXyXyXyXyX",
"yX7X-X    . 0 e e a M m _.P U f 5 u e g K A F T >XG 6 7 (.C 5 F *X:XqXyXyXyXyXyXyXyXyXyXyXyXyXyXyXyX",
"yX*X    0 ~ x.v.v. X.XI.#XT.{ w.L.P.R.T.J.} K 7 7 5 6 F L Z V L = 6 Y =X;X=XY *XY 7XyXyXyXyXyXyXyXyX",
"yX*X  . ! 8.A.N.B.+X.XS.@XXXb.{.Y.+X+X|.b.=.i o * 4 * * = Q.].C * = * o 5 *       :XyXyXyXyXyXyXyXyX",
"      ; E 5.8.i.p.l.S. Xb.R.I.OX1X0X0X4XY.1.! o       + + V [.k   @ # ; # ; # $ o o   6XyXyXyXyXyXyX",
"    @ ` ..j.c.k.v.XXU.A.V.D.}.Z.U.$X$XoXm.| ;.i       - * z ^.z 1 X ^ t.X.t.t.2.;     = ,XyXyXyXyXyX",
"    . O.<.2.k.m.T.+X+X}.}.@X3X}.}.D.P.g.1.:.:.i .       O z S M e.q.d.P. X XB.u.] , .   7 H yXyXyXyX",
"    @  .<.<.;.1.P.OX.XF.U.+X<XU.G.m...:.<...:.i .   0 0.0.w.r.s.C.N.P.1X5X5X+X|.s./ i @     wXyXyXyX",
"    @ @.;.o.-.<.v.XXF.B.N.F.{.C.M.4.&.;.:...<.! X $ 0.A.V.V.A.C.C.C.U.4X0XtX$X.XA.<.@.#     6XqXyXyX",
"    . @.#.&.7.y.c.j.x.u.a.N.v.g.3.>.6.*.[ 7.=.w @ ^ a.i.k.x.c.j.l.l.z.U..X.XC.c.o.:.-.8 @     -XyXyX",
"    . @.&.@.@. .j.u.x.l.N.D.8.5.5.4.,.&.&.-.R % @ ^ i.y.8.5.j.5.5.5.n.D.H.Z.x.y...3.o.` q     -XyXyX",
"      % i @.o.<.-.5.5.j.M.y.i.8.:.[ E [ ;.6.i e [ <.5.8.8.8.y.c.{.+XG.v.l.8.8.8.5.;.@.E >     -XyXyX",
"Y A   . p [ :.4.4.4.9.n.<.o.h.3.-.+.W ` ,.3.i y @.:.5.8.8.f.k.G.<X3XOXg.l.j.5.8.3.+._ [ 8     -XyXyX",
"yX*X    : w W ` >.K.9.3.:.:. .@.@.&.@.-.Q u 8 w @.:.8.8.8.x.A.G.2X3XOXh.o.l.n.8.-.[ _ _ 8 .   -XyXyX",
"yX-X5     @ ( ] J.n.>.=.6.>.` @.#.%.%.*.s .   p &.:.5.4.o.k.c.c.Y.XXD.j.8.o.7.h.>.+.+.) >     =XyXyX",
"yXyXyX    . O g ) +.' E +.[ W %.@.+.+.i X     p +. . .@. .;.@.6.f.8.v.h.8.8...&.b.[ ( @.t     -XyXyX",
"yXyXyXyX=X* 5 .   . 9 ` E ) ` E r + . .     +   @ i @.@.@.4.7.,.h.C..XH.V.j.5.5.&.*.>.;       -XyXyX",
"yXyXyXyX7X-X        ; w q r r > :       f =XF   . i @.@.;.3.>.3.1.1.S.h.1.6.>.;.@.+.' = @   *X8XyXyX",
"yXyXyXyXyXyX7X7X:X  +             F 7X6X9XrXY +   $ d [ -.| @.,.+.$.*.&.+.W ] ` W u : yX=   wXyXyXyX",
"yXyXyXyXyXyXyXyX8X* O O O O O O O U yXyXyXrX_.O     u $.$.#.` +.%.` @.#.[ ~ W #.) > yXyXyX4 yXyXyXyX",
"yXyXyXyXyXyXyXyXyXyXyXyXyXyXyXyXyXyXyXyXyXyXyX>XH 6 yXyXyX9 i R R u R i p i ; yXyXyXyXD 6XyXyXyXyXyX",
"yXyXyXyXyXyXyXyXyXyXyXyXyXyXyXyXyXyXyXyXyXyXyXyXyXY yXyXyXyXyXyXyXyXyXyXyXyXyXyXyXyXyX9XyXyXyXyXyXyX",
"yXyXyXyXyXyXyXyXyXyXyXyXyXyXyXyXyXyXyXyXyXyXyXyXyXqX8X7XG yXyXyXyXyXyXyXyXyXyXyX>X8X8XyXyXyXyXyXyXyX",
"yXyXyXyXyXyXyXyXyXyXyXyXyXyXyXyXyXyXyXyXyXyXyXyXyXyXyXyXyXyXyXyXyXyXyXyXyXyXyXyXyXyXyXyXyXyXyXyXyXyX",
"yXyXyXyXyXyXyXyXyXyXyXyXyXyXyXyXyXyXyXyXyXyXyXyXyXyXyXyXyXyXyXyXyXyXyXyXyXyXyXyXyXyXyXyXyXyXyXyXyXyX",
"yXyXyXyXyXyXyXyXyXyXyXyXyXyXyXyXyXyXyXyXyXyXyXyXyXyXyXyXyXyXyXyXyXyXyXyXyXyXyXyXyXyXyXyXyXyXyXyXyXyX",
"yXyXyXyXyXyXyXyXyXyXyXyXyXyXyXyXyXyXyXyXyXyXyXyXyXyXyXyXyXyXyXyXyXyXyXyXyXyXyXyXyXyXyXyXyXyXyXyXyXyX"
};
