/* XPM */
static char *result[] = {
/* columns rows colors chars-per-pixel */
"50 50 219 2 ",
"   c #5B2D1E",
".  c #5C2A17",
"X  c #5E311F",
"o  c #5D2F20",
"O  c #5E3122",
"+  c #623323",
"@  c #6C3623",
"#  c #6D3823",
"$  c #753C24",
"%  c #7C3D24",
"&  c #7C3E28",
"*  c #763D28",
"=  c #7C4025",
"-  c #7E442A",
";  c #6D4A3A",
":  c #824326",
">  c #83452B",
",  c #83492B",
"<  c #8D4C2E",
"1  c #91532E",
"2  c #905527",
"3  c #8E4E32",
"4  c #854A30",
"5  c #904F32",
"6  c #8F5133",
"7  c #865736",
"8  c #945333",
"9  c #995533",
"0  c #9C5836",
"q  c #965639",
"w  c #9A5738",
"e  c #95593A",
"r  c #9C5B3C",
"t  c #955A35",
"y  c #A35C36",
"u  c #A45E39",
"i  c #9B613E",
"p  c #9B642F",
"a  c #AA6037",
"s  c #A5613B",
"d  c #AB623B",
"f  c #AF6A3E",
"g  c #A56C3A",
"h  c #B3663C",
"j  c #B4693F",
"k  c #A67539",
"l  c #B27D3A",
"z  c #A3732F",
"x  c #815E4D",
"c  c #945D42",
"v  c #9C5F41",
"b  c #9B6344",
"n  c #9B6849",
"m  c #9E7259",
"M  c #916E44",
"N  c #A26441",
"B  c #AD6741",
"V  c #A36944",
"C  c #AB6B44",
"Z  c #A46C4A",
"A  c #AB6D49",
"S  c #B56C43",
"D  c #B56F4C",
"F  c #B96F4A",
"G  c #B96D44",
"H  c #AB724C",
"J  c #AD7C4F",
"K  c #B9724B",
"L  c #B8774A",
"P  c #A46E52",
"I  c #AD7C51",
"U  c #A6735D",
"Y  c #AA755C",
"T  c #AC7758",
"R  c #BA7652",
"E  c #B27D52",
"W  c #BF7C54",
"Q  c #B37A5A",
"!  c #9A7668",
"~  c #A97B66",
"^  c #B87F64",
"/  c #C17E59",
"(  c #C17F60",
")  c #B28E3D",
"_  c #B7823E",
"`  c #B8933D",
"'  c #C18F3F",
"]  c #C29B3F",
"[  c #BC8743",
"{  c #B7835B",
"}  c #B9835C",
"|  c #BC8A5E",
" . c #B48255",
".. c #B18D43",
"X. c #9B8070",
"o. c #AF826C",
"O. c #BC8760",
"+. c #BD8B61",
"@. c #B9886C",
"#. c #B4876A",
"$. c #BE997E",
"%. c #BC967B",
"&. c #A68578",
"*. c #C48E44",
"=. c #C19D44",
"-. c #C79649",
";. c #C3825F",
":. c #C2895B",
">. c #CFA74B",
",. c #C9A648",
"<. c #D3AB4A",
"1. c #D2A947",
"2. c #D5B04A",
"3. c #DBB54D",
"4. c #CDAF56",
"5. c #D3AE50",
"6. c #DEB750",
"7. c #DEBB53",
"8. c #DBBB5C",
"9. c #E2BC52",
"0. c #C38261",
"q. c #C18D63",
"w. c #C78D69",
"e. c #C59266",
"r. c #C69269",
"t. c #C8966A",
"y. c #CA9B6C",
"u. c #C99767",
"i. c #C99C7C",
"p. c #C89873",
"a. c #D29C71",
"s. c #CBA16F",
"d. c #D3B46B",
"f. c #CDA673",
"g. c #D1A575",
"h. c #D3A57A",
"j. c #D4AB7A",
"k. c #D9AB7E",
"l. c #D7B07E",
"z. c #D8B07F",
"x. c #DDC155",
"c. c #ECC455",
"v. c #E4C45C",
"b. c #EBC556",
"n. c #F4CD57",
"m. c #F3CC5A",
"M. c #F2D25D",
"N. c #E8CC64",
"B. c #F3DD65",
"V. c #F1D567",
"C. c #E4CB7B",
"Z. c #F0CE71",
"A. c #EBD679",
"S. c #F4DB72",
"D. c #F5DA78",
"F. c #F9E86C",
"G. c #F5E678",
"H. c #BE9684",
"J. c #C09A86",
"K. c #D4A787",
"L. c #DBB282",
"P. c #D6BA8C",
"I. c #C6A697",
"U. c #C8A697",
"Y. c #C6A799",
"T. c #C8A798",
"R. c #C5A99B",
"E. c #C9A99A",
"W. c #C8A897",
"Q. c #D6B499",
"!. c #D1AE99",
"~. c #E3B48A",
"^. c #E5BC8C",
"/. c #E2B387",
"(. c #E8BB95",
"). c #CDB8A4",
"_. c #D0BCA8",
"`. c #D3BDB2",
"'. c #C4AFA2",
"]. c #EBBFA0",
"[. c #D7C698",
"{. c #EEDD87",
"}. c #EAC291",
"|. c #EEC995",
" X c #EBC99F",
".X c #EDCF91",
"XX c #F4E789",
"oX c #D6C1A7",
"OX c #D8C3BB",
"+X c #ECC3A6",
"@X c #E5C5AA",
"#X c #EDC4AA",
"$X c #EACBAF",
"%X c #ECD6AF",
"&X c #F1D3AF",
"*X c #F1D6B9",
"=X c #F4DABB",
"-X c #EAD6BC",
";X c #EFE2A3",
":X c #F9F3AA",
">X c #EEE1B3",
",X c #F7EFAC",
"<X c #DFCEC8",
"1X c #DCD0CA",
"2X c #E5D4CB",
"3X c #EBDACC",
"4X c #E7D4C4",
"5X c #F4DCC2",
"6X c #E4D9D1",
"7X c #E9DED8",
"8X c #E2CDC6",
"9X c #ECE1D9",
"0X c #F4E9DC",
"qX c #F1EAC7",
"wX c #F4EBE4",
"eX c #F4EDEA",
"rX c #F6F4E7",
"tX c #F4F3EC",
"yX c #3FB001",
/* pixels */
"yXyXyXyXyXyXyXyXyXyXyXyXyXyXyXyXyXyXyXyXyXyXyXyXyXyXyXyXyXyXyXyXyXyXyXyXyXyXyXyXyXyXyXyXyXyXyXyXyXyX",
"yXyXyXyXyXyXyXyXyXyXyXyXyXyXyXyXyXyXyXyXyXyXyXyXyXyXyXyXyXyXyXyXyXyXyXyXyXyXyXyXyXyXyXyXyXyXyXyXyXyX",
"yXyXyXyXyXyXyXyXyXyXyXyXyXyXyXyXyXyXyXyXyXyXyXyXyXyXyXyXyXyXyXyXyXyXyXyXyXyXyXyXyXyXyXyXyXyXyXyXyXyX",
"yXyXyXyXyXyXyXyXyXyXyXyXyXyXyXyXyXyXyXyXyXyXyXyXyXyXyXyXyXyXyXyXyXyXyXyXyXyXyXyXyXyXyXyXyXyXyXyXyXyX",
"yXyXyXyXyXyXyXyXyXyXyXyXyXyXyXyXyXyXyXyXyXyXyXyXyXyXyXyXyXyXyXyXyXyXyXyXyXyXyXyXyXyXyXyXyXyXyXyXyXyX",
"yXyXyXyXyXyXyXyXyXyXyXyXyXyXyXyXyXyXyXyXyXyXyXyXyXyXyXyXyXyXyXyXyXyXyXyXyXyXyXyXyXyXyXyXyXyXyXyXyXyX",
"yXyXyXyXyXyXyXyXyXyXyXyXyXyXyXyXyXyXyXyXyXyXyXyXyXyXyXyXyXyXyXyXyXyXyXyXyXyXyXyXyXyXyXyXyXyXyXyXyXyX",
"yXyXyXyXyXyXyXyXyXyXyXyXyXyXyXyXyXyXyXyXyXyXyXyXyXyXyXyXyXyXyXyXyXyXyXyXyXyXyXyXyXyXyXyXyXyXyXyXyXyX",
"yXyXyXyXyXyXyXyXyXyXyX8XT.T.I.Y.T.W.W.W.I.I.I.Y.R.R.Y.W.T.T.Y.Y.Y.W.W.I.Y.`.yXyXyXyXyXyXyXyXyXyXyXyX",
"yXyXyXyXyXyXyXyXyXyX! m K.+X+Xw.r ~ (.+X+X@X$X3X3X4X#X(.].#X4X3X3X@X} q w c ! ! ~ &.7XyXyXyXyXyXyXyX",
"yXyXyXyXyXyXyXyXyX9XN P @X5X=XK.i Y @X*X%X*X5XwXwXwX5X X&X*X0XwXwX-Xq.i n n Z Z n c OXyXyXyXyXyXyXyX",
"yXyXyXyXyXyXyXwX'.b i.Q.P.j.j.z.e.A V J J J J  .E E J J J J I I I J J #.p.H.H.%.H.%.Y R.6XyXyXyXyXyX",
"yXyXyXyXyXyXyX`.c P &X/.} L q.j.y.E 6 , - - , , , , , - , , > , > > , > > > < > c Q.Z c I.yXyXyXyXyX",
"yXyXyXyXyXyXyX#.I Q.e.:.j :.u.y.i = # O     X X O   X O         o o   X @ @ $ & % 4 5 5 ~ 6XyXyXyXyX",
"yXyXyXyXyXeX2X@.~.a.h j L :.s.J $ . .           X     o             o @ * * & & > 5 r ~ H.7XyXyXyXyX",
"yXyXyXyXyXOXo.Q e./ h L u.:.H 8 +     O o o   X O       o     . o o # * & * & > < q H.2X9XyXyXyXyXyX",
"yXyXyXyXyX'.b } G j j | h.+.8 - + X + ; + X   o O X X + + X O O O + - * & & > 5 8 n <XyXyXyXyXyXyXyX",
"yXyXyXyX9X%.Z  .j L y.e.H g [ 4.[.).oX[.5.-.M x M ,.4.4.[.).oX$.M 7 7 * & > < 5 #.6XyXyXyXyXyXyXyXyX",
"yXyXyXyX3Xi.a.L f y.j.E 2 z v.F.S.A.Z.S.F.G.XXqXA.B.M.7.N.V.XXG.A.C...= < 5 5 q tXyXyXyXyXyXyXyXyXyX",
"yXyXyXyX4Xi.f.y.y.d.r u ,.6.N.:X}.2.7.n.m.8.XXtXqXXXx.2.x.M.M.N.S.S.;X6X! ! 1X7XyXyXyXyXyXyXyXyXyXyX",
"yXyXyXyX2XY t E e 1 1 ' n.n.m.;XrX;Xv.n.n.b.7.XX,XZ.2.,.1.b.n.n.n.n.F.:X,XG.:XyXyXyXyXyXyXyXyXyXyXyX",
"yXyXyXyXeXJ.P T t g z ` 9.n.m.C.qX>X8.7.9.v.6.B.{.8.,.,.1.6.b.c.7.7.x.A.A.B.G. XyXyXyXyXyXyXyXyXyXyX",
"yXyXyXyXyXeX4XY e p ) ) ,.2.2.1.d.d.>.<.1.<.<.2.,.` ` [ ,.1.2.1.` ` ` ` ,.3.<.>.yXyXyXyXyXyXyXyXyXyX",
"yXyXyXyXyXyXyX~ r r k k *.-.*.*.[ *.*.*.*.*.*.*._ l l l ' *.*.*._ _ _ _ [ *.*.-.8XyXyXyXyXyXyXyXyXyX",
"yXyXyXyXyXyXyX@.e.b 8 q r y r y y y y y y 0 y s s s r y 0 y 0 y 0 y y 0 y y y u Y yXyXyXyXyXyXyXyXyX",
"yXyXyXyXyXyXyXp.^.e.q A { { { { { } Q } { { { } O.O.{ { } } { { } { { { { { } | Q yXyXyXyXyXyXyXyXyX",
"yXyXyXyXyXyXyX~ n L.6 | L.L.L.j.j.j.j.j.j.j.j.j.j.j.L.L.j.j.j.j.j.j.j.j.j.k.L.}.( yXyXyXyXyXyXyXyXyX",
"yXyXyXyXyXyXyX~ = a.8 O.L.k.a.e.e.e.e.r.e.u.y.l.g.y.r.f.l.t.e.e.r.e.e.e.u.y.P.|.0.yXyXyXyXyXyXyXyXyX",
"yXyXyXyXyXyXyXY % h 9 | L.w.v 8 3 < < 3 6 e H }.j.q.} g.^.C 6 3 3 < 6 8 t H L.|.;.yXyXyXyXyXyXyXyXyX",
"yXyXyXyXyXyXyXU % d 8 O.L.O.: % % % % % % : N (.L.j.h.k.^.N % % % % = % , i k.|.0.yXyXyXyXyXyXyXyXyX",
"yXyXyXyXyXyXyXU % a 8 | L.q.u h h B S S h d w w 0 9 w w w w d h S R K 9 3 b z.|.0.yXyXyXyXyXyXyXyXyX",
"yXyXyXyXyXyXyXU % u 8 +.k.q.u S S K K R S S S G G S S S S S S K / / G 0 3 s z.|.;.yXyXyXyXyXyXyXyXyX",
"yXyXyXyXyXyXyX~ % u 8 | L.+.s F D ^ 0.( F F G K K G F F K F K R / F F D 0 s l.|.;.yXyXyXyXyXyXyXyXyX",
"yXyXyXyXyXyXyXU : u 8 +.L.+.8 8 9 0 Z w 8 9 9 9 9 9 8 9 9 1 N 8 w 8 9 5 8 b l.|.;.yXyXyXyXyXyXyXyXyX",
"yXyXyXyXyXyXyXU : u 9 | L.q.0 y a d d y u u y a a a y u a y D u u u y 9 6 s L.|.;.yXyXyXyXyXyXyXyXyX",
"yXyXyXyXyXyXyXY < a 1 :.L.q.d h j j j j h G j j j j j h h j h h j h B y 8 b l.|.;.yXyXyXyXyXyXyXyXyX",
"yXyXyXyXyXyXyX@.r.B s e.L.q.u h h h h j j j G h j h h h S h h h h h h y w Z L.|.;.yXyXyXyXyXyXyXyXyX",
"yXyXyXyXyXyXyX~ n g.9 +.L.q.9 9 9 1 2 0 9 9 0 0 0 0 9 9 9 9 8 9 9 9 8 1 8 H L.|.0.yXyXyXyXyXyXyXyXyX",
"yXyXyXyXyXyXyXI.e } 8 +.l.y.E E E L E E E E E {  . .E E E E E E E E E E E | ^.|.0.yXyXyXyXyXyXyXyXyX",
"yXyXyXyXyXyXyXyX7XZ C y.}.}.}.}.}.}.}.}.}.}.}.}.}.}.}.}.}.}.}.}.}.}.}.}.(.}.}..X0.yXyXyXyXyXyXyXyXyX",
"yXyXyXyXyXyXyXyXyXT C r.^.(.~.~.~.~.~.~.~.~.~.~.~.~.~.~.~.~./.~.~.~.~.~.~.~.~.~.r.yXyXyXyXyXyXyXyXyX",
"yXyXyXyXyXyXyXyXyX_.E.!.Q.!.U.T.T.T.T.I.U.U.E.E.E.T.E.T.T.I.T.T.T.T.T.I.T.I.I.T.@XyXyXyXyXyXyXyXyXyX",
"yXyXyXyXyXyXyXyXyXyXyXyXyXyXyXyXyXyXyXyXyXyXyXyXyXyXyXyXyXyXyXyXyXyXyXyXyXyXyXyXyXyXyXyXyXyXyXyXyXyX",
"yXyXyXyXyXyXyXyXyXyXyXyXyXyXyXyXyXyXyXyXyXyXyXyXyXyXyXyXyXyXyXyXyXyXyXyXyXyXyXyXyXyXyXyXyXyXyXyXyXyX",
"yXyXyXyXyXyXyXyXyXyXyXyXyXyXyXyXyXyXyXyXyXyXyXyXyXyXyXyXyXyXyXyXyXyXyXyXyXyXyXyXyXyXyXyXyXyXyXyXyXyX",
"yXyXyXyXyXyXyXyXyXyXyXyXyXyXyXyXyXyXyXyXyXyXyXyXyXyXyXyXyXyXyXyXyXyXyXyXyXyXyXyXyXyXyXyXyXyXyXyXyXyX",
"yXyXyXyXyXyXyXyXyXyXyXyXyXyXyXyXyXyXyXyXyXyXyXyXyXyXyXyXyXyXyXyXyXyXyXyXyXyXyXyXyXyXyXyXyXyXyXyXyXyX",
"yXyXyXyXyXyXyXyXyXyXyXyXyXyXyXyXyXyXyXyXyXyXyXyXyXyXyXyXyXyXyXyXyXyXyXyXyXyXyXyXyXyXyXyXyXyXyXyXyXyX",
"yXyXyXyXyXyXyXyXyXyXyXyXyXyXyXyXyXyXyXyXyXyXyXyXyXyXyXyXyXyXyXyXyXyXyXyXyXyXyXyXyXyXyXyXyXyXyXyXyXyX",
"yXyXyXyXyXyXyXyXyXyXyXyXyXyXyXyXyXyXyXyXyXyXyXyXyXyXyXyXyXyXyXyXyXyXyXyXyXyXyXyXyXyXyXyXyXyXyXyXyXyX"
};
