/* XPM */
static char *_577381d50634cb98968ad33384bd958zbTC14ApNbUged4G[] = {
/* columns rows colors chars-per-pixel */
"50 50 80 1 ",
"  c #3FB001",
". c #3FB001",
"X c #3FB001",
"o c #3FB001",
"O c #3FB001",
"+ c #3FB001",
"@ c #3FB001",
"# c #3FB001",
"$ c #3FB001",
"% c #3FB001",
"& c #3FB001",
"* c #3FB001",
"= c #3FB001",
"- c #3FB001",
"; c #3FB001",
": c #3FB001",
"> c #3FB001",
", c #3FB001",
"< c #3FB001",
"1 c #3FB001",
"2 c #3FB001",
"3 c #3FB001",
"4 c #3FB001",
"5 c #3FB001",
"6 c #3FB001",
"7 c #3FB001",
"8 c #3FB001",
"9 c #3FB001",
"0 c #3FB001",
"q c #3FB001",
"w c #3FB001",
"e c #3FB001",
"r c #3FB001",
"t c #3FB001",
"y c #3FB001",
"u c #3FB001",
"i c #3FB001",
"p c #3FB001",
"a c #3FB001",
"s c #3FB001",
"d c #3FB001",
"f c #3FB001",
"g c #3FB001",
"h c #3FB001",
"j c #3FB001",
"k c #3FB001",
"l c #3FB001",
"z c #3FB001",
"x c #3FB001",
"c c #3FB001",
"v c #3FB001",
"b c #3FB001",
"n c #3FB001",
"m c #3FB001",
"M c #3FB001",
"N c #3FB001",
"B c #3FB001",
"V c #3FB001",
"C c #3FB001",
"Z c #3FB001",
"A c #3FB001",
"S c #3FB001",
"D c #3FB001",
"F c #3FB001",
"G c #3FB001",
"H c #3FB001",
"J c #3FB001",
"K c #3FB001",
"L c #3FB001",
"P c #3FB001",
"I c #3FB001",
"U c #3FB001",
"Y c #3FB001",
"T c #3FB001",
"R c #3FB001",
"E c #3FB001",
"W c #3FB001",
"Q c #3FB001",
"! c #3FB001",
"~ c #3FB001",
/* pixels */
"ZZWYYI,#+kmWWCZZZZZ++$#$$ZZZPPT@##zZZZZZZZZk###$##",
"ZZWYII,##kZWSCZZZZZ$#$#+$ZZDPPP###zZZZZZZZZr##$+$+",
"ZDWYPY4##gmRCEWZZZB@@$$@$bDBUPP###kRZCm~ZCWk@$$@$@",
"ff1kzk$XX#$$FWCCZZWmMBZBB1ffk7w#XX#$#2mnZSWmRBBLBM",
"111tqt$XX+##GZZZZZZZDZDDR1113k3+XX@$+2ZZZZZZZZDZZm",
"1<1tk7@XX+##GZZZZZZZZZZZW1117gkXXXO##2ZZZZZZZZZmZD",
".<#pdd%XX2kzBZZv005ZZm607%%Xss1XXX2gvbZZv65eZZB560",
"XXo<11%XX3RZZZZh**;WZm**>XXX<11+XX7ZbCZZg-*0DmL-:*",
"XXX<<<%XX3ZZ~m~k:*-WZm>*:X+X111+XXtZZZZZ7>*9WWM**=",
"X++%<.2q3BZZ7559@o@$$4ezk+++%% 333CZZv88-@@+$$4hzH",
"#+@XXX3ZZZZZ5*-@XXXXX+ZZZ$++XO%Z~~RmZe**@XXX+X+mDZ",
"#$#XXXrSZZZZ5*-@XXXXXXmWB$##XXXBZZmmZJ-*-XXXXX+CZm",
"+++qqqt33355ezJ5XXXXXO555+++qqqyr37558zJ2XXXXX+955",
"XXXBWEq22--*JZZ7XXXXXX--*XXXBZD222-*-5~R3XXXXXX-**",
"XXXGSZ322--*JZZ7XXXXXX-**XXXSZW222-*-5RD7XXXXXo***",
"XXX7Ft3ky9**8zz7$$##$#**@XXX3k7trg;**2Hz7$$#$$#:=*",
"XXXXXX7Zn5::**=5Wmmmmm##+XXXXXXDWW5**=>>9ZZCRZB**=",
"XXXXXX3mW9*:=**9mWZZRC##++XXXXXBZZ5;=**>5WZZmWZ*-*",
"XXXXoX7BW9::*,*9SSZWiS###+XX#oXLDD5*:,,:9KZZ~RB-;;",
"XXX**-$#$OXXOXXo:--111SZmXXX=--@#++XXXXO@:-&111ZDD",
"XXX-**&$$XXXXXXo**-111ZZv+XX***$$#XXXXXX@*:911f~ZZ",
"XXX--*&@$OXXXXXo:*&111ZZb#XX**>$&$@XXXXXo;>&111~mR",
"###7FkBCS4XXXXXXXX#<1111<#@#7k7ZmD$XXXXXXXO#111111",
"+#@3tqRCS$XXXXXXXX <11111###777Dmm$XXXXXXXX%111111",
"$$&7qqbBS$+X+X#XX++1<1<1<$$#q3kBZB$#+XX+X++$<1u1f<",
"mZZzPP9$#3SBBZLBBMM##$#@$bSbPIP&##FmBZmLZbCk-*----",
"ZZSYPP,##kWZZZZZmWm$#+##$SbSYPP+#$7ZmZZZZZZz-*=**=",
"BZCYPY&##tKZZZZZZZm#####$SSCPPP#$+FZDZZZZZmh--***-",
"111yzz$X++$$FZZWZZZmBRBZm1<1PTPoXX#&#2ZZZZZZZZBZZZ",
"111y7k$XX++#GZZmZZZWZZWZW111TTYXXXO##2ZZZZZZZZWZZm",
"111t7q@XX++#GWWRmSZZZZCCS111TUIoXX+@$2ZZZZZZWZmmmZ",
" .Xd1<%XX7ZSZEmk*--ZCS--*X +<<1XXX7ZZMZZz*-9mmL***",
"XXX<11%XX3ZZZZZG**;mmn--*XXX111. O4EZZZZz**6mmM***",
"XOX<11# X3CCZZZz**;mZZ>=:XX+111 O FEZZZZz*=9DmD*>*",
"@+X%%#273BSSe85-@@@#$$zhq$+++2%3F7bZDB85-@@$2$$hzz",
"#@#XXXyZ~SSS5--@XXXXXXZ~Z$$+XXXBZZZZDz-*@XXXXX+mZZ",
"&##OXX3ZDZZZ5*-@XXXXXXZDb$#@+X BWKWZKG--*XXXXX+mZZ",
"#+$#$#yBvGJJ755$XXXXXOHJ8$++%$2kiGJJJe55$XXXXXXzJJ",
"XXXBZZ322--*JWRgXXXXXX--,XXXmZm222,-*5mZ7XXXXXX--*",
"XXXbZZ342&--JWR7XXXXXX--=XXXmmW222-;-5ZZ7XXXXXX**>",
"XXX4333rg9**8gz7$4$2$$-@*XXX7377775**9zv7$$42$&,:-",
"XXXXXXrRW5-****5ZZZWWm#@#XXXXXXDmm5*****5mWmmRB*--",
"XXXXXXgmW5-*=;*5ZZZmEC###XXXXXXBRZ5*=*-*5ZZ~ZmZ*:-",
"XXXooo2kt9@-*@*,zzviii224+XXX@ohtz&*@**+5zzviii99e",
"XX+*-*&#&+XXoXX@***111SZmXXX***###@XXXXoX--411fZW~",
"XXX*--@#+XXXXXXo>:&111CCb+XX--*$##+XXXXX@**4111ZEW",
"+XX,--$$##XXXXXX:@$111iCC+X@---$$$+XXXXX@:*4111mii",
"+##77tmZZ&XXXXXXO  11111<-**7kgDRZ$XXXXXXXX#111111",
"#$@tkkZZZ$XXXXXXXX.11111<---7k3mRR$XXXXXXX .111111",
"$+$33FZZZ$XXXXXXXXX111111-*-g7kRWW$XXXXXXXX#111111"
};
