/* XPM */
static char *c5a04c400f5c43c48ba237eeec777619N0Tg8xf9aWLdRh5x[] = {
/* columns rows colors chars-per-pixel */
"50 50 117 2 ",
"   c #320A0A",
".  c #3D0E0C",
"X  c #391512",
"o  c #3F1916",
"O  c #44140F",
"+  c #4C140F",
"@  c #441512",
"#  c #4C1412",
"$  c #421916",
"%  c #441B1A",
"&  c #4C1C1B",
"*  c #531B15",
"=  c #591B15",
"-  c #5D1E19",
";  c #45211E",
":  c #4C211E",
">  c #56211D",
",  c #59221E",
"<  c #462420",
"1  c #4B2522",
"2  c #4E2927",
"3  c #512120",
"4  c #5D2520",
"5  c #5F2823",
"6  c #522C2A",
"7  c #5E3C37",
"8  c #5F3B39",
"9  c #602622",
"0  c #612925",
"q  c #7D2E26",
"w  c #7C2D29",
"e  c #793229",
"r  c #613F3C",
"t  c #6A3E39",
"y  c #763834",
"u  c #5F403B",
"i  c #62413C",
"p  c #654241",
"a  c #694644",
"s  c #6C4C47",
"d  c #6F4F4B",
"f  c #734C47",
"g  c #714D4A",
"h  c #71534C",
"j  c #7C5E5B",
"k  c #832E27",
"l  c #892F27",
"z  c #822D28",
"x  c #892F28",
"c  c #843027",
"v  c #893027",
"b  c #84322B",
"n  c #8E352C",
"m  c #86382E",
"M  c #8E382D",
"N  c #90352C",
"B  c #943A2E",
"V  c #983A2E",
"C  c #823730",
"Z  c #8B3631",
"A  c #833831",
"S  c #873B31",
"D  c #843A33",
"F  c #843C32",
"G  c #863C33",
"H  c #863B34",
"J  c #873D36",
"K  c #8E3930",
"L  c #8C3B32",
"P  c #883C35",
"I  c #8A3E38",
"U  c #923A31",
"Y  c #953C31",
"T  c #973F31",
"R  c #983E32",
"E  c #983F32",
"W  c #904135",
"Q  c #9B4135",
"!  c #934339",
"~  c #834742",
"^  c #814A45",
"/  c #83524C",
"(  c #89524D",
")  c #825C56",
"_  c #925C56",
"`  c #945F5A",
"'  c #9E6C64",
"]  c #9E7067",
"[  c #99736E",
"{  c #A06C63",
"}  c #A17067",
"|  c #A77067",
" . c #A27168",
".. c #A57069",
"X. c #A97469",
"o. c #A8736D",
"O. c #A3827D",
"+. c #9D8281",
"@. c #B18C89",
"#. c #B78F88",
"$. c #B79089",
"%. c #BC9692",
"&. c #BC9C96",
"*. c #C29791",
"=. c #C29692",
"-. c #C39991",
";. c #C19A91",
":. c #C09893",
">. c #C39893",
",. c #C29995",
"<. c #C29B94",
"1. c #C59C94",
"2. c #C69D95",
"3. c #C69D96",
"4. c #C49D99",
"5. c #C69E98",
"6. c #C69F98",
/* pixels */
"$ $ % $ $ $ $ $ $ o @ % % 2 $ $ $ $ % 1 $ $ $ $ $ @ $ $ % $ $ $ $ $ $ o X $ ; $ $ o $ $ & % $ $ o $ ",
"C C C C C e C C C C C > p ,.S H D P I P G H G G G G G W H I G G G P H W & i o.L A m e C C D C C e C ",
"x l l l x x x x l l k - r =.N n n U N n n N n n n n n n n n n n n n n N # i | c x x n k l l l l l x ",
"x x l l l x x x l l k - p =.N n n n N n N n K n n n n N N n n n n N N n # i | n x x x x l l l l x x ",
"l l l l l x n l l l l - r =.n n n N n N n n n n K n n N n n N n n N n N # i { n n x l l l l l l x x ",
"l l l l x n n l l l k - i =.n N N n N n n n n n N N n n N n N n N n N N + i | M n x l l l l x x x x ",
"l l l k x c l l l l l - p >.n n n n N n n n n N N n n N n n M n N n N N + i | M l l l l l l x c x x ",
"l l l l n l l l l l l - a >.N n n N n n K K N n n N n n n n n n n N N V + i | n l l l l l l n x l x ",
"l l l c l l l l l l l , a =.N n n N n N B n N n N n n n n n n n n n N N + i | n l l v v l n v v l l ",
"l l l x l l l l l v Z = r =.N N n n n N n N n n n n n n n n n Z n n n M > i | v l l l v n v v v l l ",
"l l l l l k l l c c c = r =.n N v N N N n n n n n n K K n n n n n n n n + r | n l l k c c l k v l l ",
"= = = = = = = = = = * @ r O.= - - = - - , = - - - - - - = - - - - - - - O 7 ) = = = = = = = = = = = ",
"o r r r r i i i i i i i h j i r i i i i i i i i 1 1 8 i t i i r i i i r i f h i r i i i i i r i r o ",
"2 4.3.3.3.4.4.3.2.2.2.2.2.2.2.>.1.3.3.1.1.3.3.#.f f $.;.>.;.%.=.;.;.;.;.>.;.-.;.=.;.;.%.;.>.%.;.&.6 ",
"$ E Y Y E E V V V V V B Y E E V V V V V Q B B M , 9 n n n n n n n n n N N N M n n N n N n n n n G 1 ",
"# I Y Y E E V V V V V B E E R V V V V V V V B M 9 , b n n n M n N n N n n n M n N n N n n N M n c & ",
"# ! Q Y Q V V V V V Y Y E E V V V V V B Q B V M , , n n W n n n n n N K n n K N n N n N n U U n b & ",
"# ! V Q B V V V V V V V Y V V V V Q B B V V V M 9 , m n n n n n N n n n K N N n N n n n n n n n n & ",
"@ ! B V V V V V V V V V V V V V V B Q B V V V M , , N M N n n n N N n n N n N N N n N n N n n n m & ",
"% W V V V V V Y V V V V V V V V V Q V V V V V M 9 5 N N n N n N N N K K N N n n n N n N n N n n b & ",
"# I B V V V Y V E V V V V V V V V V V V V V V n , 5 n n N N N n N n n N N n n n N N n n n n n n b & ",
"# ! V V V B Q Q E E V V V V V V V V V V V V Q M , , b n n M n N N N N n n n N n N K n n n N N N b & ",
"# E V V B Q E B V V V V B E E V V V V V V V Q W 5 9 n n M N n N N N n n N N N B N n n n N N N N m & ",
"@ I N N W U n M M n n n U K U M M M M M M B M e , , e v v v c c b c x v n c b n z n x x x b x D e & ",
"$ 9 4 9 9 4 4 4 , 9 9 0 0 9 4 4 4 4 4 9 5 9 4 3 % & , , 4 4 > > 3 4 , , , 4 , , , , , , 3 , 9 , , $ ",
"4 9 4 5 9 5 4 9 4 4 5 : 6 g , > > - 4 3 > 4 , 4 > , > > 4 4 , 3 - 4 > 3 $ 6 i 4 9 4 , 5 5 5 9 5 9 , ",
"Z x Z Z b Z n b b L L - i @.q w w w w e w w w w q e e e w q w w w w q q @ r ' n M b b b m b b n M n ",
"v Z Z n N N n n n n n = p %.k z z z z z z w z z c c q k z z z z z z z z # u X.B N N n M B N N n n n ",
"n N N N n n n n n N n = p %.q b b z z z z z z z z z z z z z z z z c q z O u X.B M N M N n N n N n n ",
"n n N N N n n n n N n = i %.q b b w z z z z z z z z z z z z z z z q z z @ i X.M N n N n n N N n n M ",
"N n n Z n n U N n n n - p %.b z z z z z z z b z z z z z z z z z z z k k O i X.n N n n N N n n n n B ",
"n N n n n N K n n n n - p %.z z z z z z z z b b z z z z z z z b z q k k O r | n n n N n n N n n n M ",
"N n n n n n N N n N n = i %.c k z z z z z C z z z z z z q b z z w z z x O i X.n n n N n N n n N M n ",
"n N n K N N n n N n n - a %.q k z z z z c z z z z k z z z Z z z z z z z @ i X.B n n n n n n M n n N ",
"n N K N n n N n n N n 4 i %.k k z z e c b w z z z z z z q z q k z z z z @ i X.M n n n N n n n n n n ",
"N n N n N N N n N N n - i %.k k z x C c z v z z k z k k z k k l z x z z # i X.B n N N N N n N N N N ",
"# # # # # + # # * # # . 8 +.@ @ @ @ # @ O O O @ @ # O O # O O @ @ @ @ #   8 ) * + + + + # + + + + + ",
"$ r i i i i i i i u u p d j 8 i r r 8 8 r r r 8 1 1 7 i u i u i r r u u u s h i i i i i i i i i i o ",
"< [  . ... .' ] ]  . .}  .] }  ...} } } ......' t r ' ..X.X.X.X.X...X.X.X.X.X.X.X.X...X.X...X.X.X.1 ",
"% _ c b c A A c b b z b b m b m C z z C z k C w - 4 Z K B M M U M B B B B M M M W M M B M B B V S & ",
"% ^ z z b b z z z z z z z w q z z z z z z b Z w > 4 A n n n n Y n N n N n n n B n N N n n N n n m & ",
"% ^ z w z z z z z z z b b q q v z z z z z C z w > 4 n n n U n n n N n n n N M n n N n n N n n n n & ",
"< / q b z z z z z z z b z z z z z z z z z z z w - 4 n n K n n N n N n N N M n n N N n n n M M n b & ",
"o y b q z z z z z z c e z z z z x z z z z z z w 3 4 b M n n N N N n N n N M N N N n n B n n n n b & ",
"< ~ q z z z z z z z b z z z z z z z z z z z z w > 4 b K n N n n n N n N N n N n n N n N M n n M b & ",
"1 ` z z z z z z z z z z z z z z b e z z z z z w - 4 n n n N N n n M B n n N n N N n N M n n n n b & ",
"< ` z z z z b c z z z z z z z z c z w z z z z w > 4 b n n n n n n M n n N n n n n n n n n n n n m & ",
"< ( z q z b e c q k q z z z w b k q k z z z v e 3 4 n M n M n n M M n n n M n M N n n n M n n M M ; ",
"; / e e e w e e w e e w e e b w e e w e e e e e 3 4 A c G m L H m m M m m m m G D m m M m m M m G & ",
"o & & ; ; & & ; % & % & & ; ; & & % & % % & & % $ % & & & 3 & 3 & & & & & > 3 3 & & & & & & & & & % "
};
